<mxfile host="app.diagrams.net" modified="2024-05-09T03:54:16.733Z" agent="Mozilla/5.0 (Windows NT 10.0; Win64; x64) AppleWebKit/537.36 (KHTML, like Gecko) Chrome/124.0.0.0 Safari/537.36" etag="DOXUO1CGDMTFjB8z8z7I" version="24.3.1" type="device">
  <diagram name="Page-1" id="DA0ycWQ5LVt837Wv0pSM">
    <mxGraphModel dx="1050" dy="522" grid="1" gridSize="10" guides="1" tooltips="1" connect="1" arrows="1" fold="1" page="1" pageScale="1" pageWidth="850" pageHeight="1100" math="0" shadow="0">
      <root>
        <mxCell id="0" />
        <mxCell id="1" parent="0" />
        <mxCell id="-7s0OTmiiwYPA75f-aJB-1" value="User" style="rounded=0;whiteSpace=wrap;html=1;" vertex="1" parent="1">
          <mxGeometry x="450" y="320" width="120" height="60" as="geometry" />
        </mxCell>
        <mxCell id="-7s0OTmiiwYPA75f-aJB-2" value="JobPoster" style="rounded=0;whiteSpace=wrap;html=1;" vertex="1" parent="1">
          <mxGeometry x="100" y="150" width="120" height="60" as="geometry" />
        </mxCell>
        <mxCell id="-7s0OTmiiwYPA75f-aJB-3" value="Job" style="rounded=0;whiteSpace=wrap;html=1;" vertex="1" parent="1">
          <mxGeometry x="20" y="340" width="120" height="60" as="geometry" />
        </mxCell>
        <mxCell id="-7s0OTmiiwYPA75f-aJB-4" value="JobApplication" style="rounded=0;whiteSpace=wrap;html=1;" vertex="1" parent="1">
          <mxGeometry x="230" y="320" width="120" height="60" as="geometry" />
        </mxCell>
        <mxCell id="-7s0OTmiiwYPA75f-aJB-5" value="Message" style="rounded=0;whiteSpace=wrap;html=1;" vertex="1" parent="1">
          <mxGeometry x="440" y="160" width="120" height="60" as="geometry" />
        </mxCell>
        <mxCell id="-7s0OTmiiwYPA75f-aJB-6" value="Payment" style="rounded=0;whiteSpace=wrap;html=1;" vertex="1" parent="1">
          <mxGeometry x="310" y="450" width="120" height="60" as="geometry" />
        </mxCell>
        <mxCell id="-7s0OTmiiwYPA75f-aJB-7" value="Invoice" style="rounded=0;whiteSpace=wrap;html=1;" vertex="1" parent="1">
          <mxGeometry x="320" y="610" width="120" height="60" as="geometry" />
        </mxCell>
        <mxCell id="-7s0OTmiiwYPA75f-aJB-8" value="" style="endArrow=classic;html=1;rounded=0;entryX=0.443;entryY=1;entryDx=0;entryDy=0;entryPerimeter=0;" edge="1" parent="1" target="-7s0OTmiiwYPA75f-aJB-2">
          <mxGeometry width="50" height="50" relative="1" as="geometry">
            <mxPoint x="120" y="270" as="sourcePoint" />
            <mxPoint x="420" y="340" as="targetPoint" />
          </mxGeometry>
        </mxCell>
        <mxCell id="-7s0OTmiiwYPA75f-aJB-9" value="" style="ellipse;whiteSpace=wrap;html=1;" vertex="1" parent="1">
          <mxGeometry x="110" y="270" width="10" height="20" as="geometry" />
        </mxCell>
        <mxCell id="-7s0OTmiiwYPA75f-aJB-10" value="" style="endArrow=none;dashed=1;html=1;dashPattern=1 3;strokeWidth=2;rounded=0;entryX=0.5;entryY=1;entryDx=0;entryDy=0;" edge="1" parent="1" target="-7s0OTmiiwYPA75f-aJB-9">
          <mxGeometry width="50" height="50" relative="1" as="geometry">
            <mxPoint x="90" y="330" as="sourcePoint" />
            <mxPoint x="420" y="340" as="targetPoint" />
          </mxGeometry>
        </mxCell>
        <mxCell id="-7s0OTmiiwYPA75f-aJB-11" value="" style="endArrow=classic;html=1;rounded=0;entryX=0.443;entryY=1;entryDx=0;entryDy=0;entryPerimeter=0;exitX=0;exitY=0;exitDx=0;exitDy=0;" edge="1" parent="1" source="-7s0OTmiiwYPA75f-aJB-12">
          <mxGeometry width="50" height="50" relative="1" as="geometry">
            <mxPoint x="180" y="270" as="sourcePoint" />
            <mxPoint x="213" y="210" as="targetPoint" />
          </mxGeometry>
        </mxCell>
        <mxCell id="-7s0OTmiiwYPA75f-aJB-16" value="" style="endArrow=none;dashed=1;html=1;dashPattern=1 3;strokeWidth=2;rounded=0;exitX=0.5;exitY=0;exitDx=0;exitDy=0;" edge="1" parent="1" target="-7s0OTmiiwYPA75f-aJB-12">
          <mxGeometry width="50" height="50" relative="1" as="geometry">
            <mxPoint x="340" y="310" as="sourcePoint" />
            <mxPoint x="300" y="250" as="targetPoint" />
          </mxGeometry>
        </mxCell>
        <mxCell id="-7s0OTmiiwYPA75f-aJB-12" value="" style="ellipse;whiteSpace=wrap;html=1;" vertex="1" parent="1">
          <mxGeometry x="280" y="260" width="10" height="20" as="geometry" />
        </mxCell>
        <mxCell id="-7s0OTmiiwYPA75f-aJB-18" value="postedBy" style="text;html=1;align=center;verticalAlign=middle;resizable=0;points=[];autosize=1;strokeColor=none;fillColor=none;" vertex="1" parent="1">
          <mxGeometry x="40" y="270" width="70" height="30" as="geometry" />
        </mxCell>
        <mxCell id="-7s0OTmiiwYPA75f-aJB-19" value="viewApplication" style="text;html=1;align=center;verticalAlign=middle;resizable=0;points=[];autosize=1;strokeColor=none;fillColor=none;" vertex="1" parent="1">
          <mxGeometry x="170" y="265" width="110" height="30" as="geometry" />
        </mxCell>
        <mxCell id="-7s0OTmiiwYPA75f-aJB-20" value="" style="endArrow=classic;html=1;rounded=0;entryX=0;entryY=0.5;entryDx=0;entryDy=0;exitX=1;exitY=0.5;exitDx=0;exitDy=0;" edge="1" parent="1" source="-7s0OTmiiwYPA75f-aJB-2" target="-7s0OTmiiwYPA75f-aJB-1">
          <mxGeometry width="50" height="50" relative="1" as="geometry">
            <mxPoint x="370" y="390" as="sourcePoint" />
            <mxPoint x="420" y="340" as="targetPoint" />
          </mxGeometry>
        </mxCell>
        <mxCell id="-7s0OTmiiwYPA75f-aJB-21" value="" style="endArrow=classic;html=1;rounded=0;entryX=0.5;entryY=0;entryDx=0;entryDy=0;exitX=0;exitY=0;exitDx=0;exitDy=0;" edge="1" parent="1" source="-7s0OTmiiwYPA75f-aJB-23" target="-7s0OTmiiwYPA75f-aJB-1">
          <mxGeometry width="50" height="50" relative="1" as="geometry">
            <mxPoint x="557" y="280" as="sourcePoint" />
            <mxPoint x="590" y="220" as="targetPoint" />
          </mxGeometry>
        </mxCell>
        <mxCell id="-7s0OTmiiwYPA75f-aJB-22" value="" style="endArrow=none;dashed=1;html=1;dashPattern=1 3;strokeWidth=2;rounded=0;exitX=0.5;exitY=1;exitDx=0;exitDy=0;" edge="1" parent="1" target="-7s0OTmiiwYPA75f-aJB-23" source="-7s0OTmiiwYPA75f-aJB-5">
          <mxGeometry width="50" height="50" relative="1" as="geometry">
            <mxPoint x="717" y="320" as="sourcePoint" />
            <mxPoint x="677" y="260" as="targetPoint" />
          </mxGeometry>
        </mxCell>
        <mxCell id="-7s0OTmiiwYPA75f-aJB-23" value="" style="ellipse;whiteSpace=wrap;html=1;" vertex="1" parent="1">
          <mxGeometry x="505" y="265" width="10" height="20" as="geometry" />
        </mxCell>
        <mxCell id="-7s0OTmiiwYPA75f-aJB-33" value="senderId&lt;div&gt;receiverId&lt;/div&gt;" style="text;html=1;align=center;verticalAlign=middle;resizable=0;points=[];autosize=1;strokeColor=none;fillColor=none;" vertex="1" parent="1">
          <mxGeometry x="505" y="255" width="80" height="40" as="geometry" />
        </mxCell>
        <mxCell id="-7s0OTmiiwYPA75f-aJB-34" value="" style="endArrow=classic;html=1;rounded=0;entryX=0.5;entryY=1;entryDx=0;entryDy=0;exitX=0;exitY=0;exitDx=0;exitDy=0;" edge="1" parent="1" source="-7s0OTmiiwYPA75f-aJB-36" target="-7s0OTmiiwYPA75f-aJB-1">
          <mxGeometry width="50" height="50" relative="1" as="geometry">
            <mxPoint x="247" y="440" as="sourcePoint" />
            <mxPoint x="280" y="380" as="targetPoint" />
          </mxGeometry>
        </mxCell>
        <mxCell id="-7s0OTmiiwYPA75f-aJB-35" value="" style="endArrow=none;dashed=1;html=1;dashPattern=1 3;strokeWidth=2;rounded=0;exitX=0.5;exitY=0;exitDx=0;exitDy=0;" edge="1" parent="1" target="-7s0OTmiiwYPA75f-aJB-36" source="-7s0OTmiiwYPA75f-aJB-6">
          <mxGeometry width="50" height="50" relative="1" as="geometry">
            <mxPoint x="407" y="480" as="sourcePoint" />
            <mxPoint x="367" y="420" as="targetPoint" />
          </mxGeometry>
        </mxCell>
        <mxCell id="-7s0OTmiiwYPA75f-aJB-36" value="" style="ellipse;whiteSpace=wrap;html=1;" vertex="1" parent="1">
          <mxGeometry x="450" y="410" width="10" height="20" as="geometry" />
        </mxCell>
        <mxCell id="-7s0OTmiiwYPA75f-aJB-37" value="sender&lt;div&gt;receiver&lt;/div&gt;" style="text;html=1;align=center;verticalAlign=middle;resizable=0;points=[];autosize=1;strokeColor=none;fillColor=none;" vertex="1" parent="1">
          <mxGeometry x="465" y="410" width="70" height="40" as="geometry" />
        </mxCell>
        <mxCell id="-7s0OTmiiwYPA75f-aJB-38" value="" style="endArrow=classic;html=1;rounded=0;entryX=0.5;entryY=0;entryDx=0;entryDy=0;exitX=0;exitY=0;exitDx=0;exitDy=0;" edge="1" parent="1" source="-7s0OTmiiwYPA75f-aJB-40">
          <mxGeometry width="50" height="50" relative="1" as="geometry">
            <mxPoint x="437" y="570" as="sourcePoint" />
            <mxPoint x="390" y="610" as="targetPoint" />
          </mxGeometry>
        </mxCell>
        <mxCell id="-7s0OTmiiwYPA75f-aJB-39" value="" style="endArrow=none;dashed=1;html=1;dashPattern=1 3;strokeWidth=2;rounded=0;exitX=0.5;exitY=1;exitDx=0;exitDy=0;" edge="1" parent="1" target="-7s0OTmiiwYPA75f-aJB-40">
          <mxGeometry width="50" height="50" relative="1" as="geometry">
            <mxPoint x="380" y="510" as="sourcePoint" />
            <mxPoint x="557" y="550" as="targetPoint" />
          </mxGeometry>
        </mxCell>
        <mxCell id="-7s0OTmiiwYPA75f-aJB-40" value="" style="ellipse;whiteSpace=wrap;html=1;" vertex="1" parent="1">
          <mxGeometry x="385" y="555" width="10" height="20" as="geometry" />
        </mxCell>
        <mxCell id="-7s0OTmiiwYPA75f-aJB-43" value="createInvoice" style="text;html=1;align=center;verticalAlign=middle;resizable=0;points=[];autosize=1;strokeColor=none;fillColor=none;" vertex="1" parent="1">
          <mxGeometry x="410" y="550" width="90" height="30" as="geometry" />
        </mxCell>
      </root>
    </mxGraphModel>
  </diagram>
</mxfile>
